<svg width="343" height="127" viewBox="0 0 343 127" fill="none" xmlns="http://www.w3.org/2000/svg">
<path fill-rule="evenodd" clip-rule="evenodd" d="M136.69 125.794C136.054 126.431 135.352 126.749 134.46 126.749C133.568 126.749 132.867 126.431 132.23 125.794C131.593 125.156 131.338 124.456 131.338 123.563C131.338 122.671 131.656 121.97 132.23 121.333C132.867 120.695 133.568 120.44 134.46 120.44C135.352 120.44 136.054 120.76 136.69 121.333C137.327 121.97 137.647 122.671 137.647 123.563C137.647 124.391 137.327 125.156 136.69 125.794ZM132.548 121.651C132.038 122.161 131.783 122.798 131.783 123.563C131.783 124.328 132.038 124.964 132.548 125.474C133.058 125.984 133.696 126.304 134.46 126.304C135.224 126.304 135.862 126.049 136.372 125.474C136.882 124.964 137.137 124.328 137.137 123.563C137.137 122.798 136.882 122.161 136.372 121.651C135.862 121.141 135.224 120.887 134.46 120.887C133.759 120.823 133.121 121.078 132.548 121.651ZM134.46 121.778V121.843H133.186V125.284H133.823V123.946H134.269C134.587 123.946 134.842 124.009 134.969 124.073C135.161 124.201 135.289 124.456 135.289 124.838V125.284H135.862V124.519C135.862 124.391 135.799 124.201 135.671 124.009C135.544 123.818 135.352 123.754 135.097 123.691C135.289 123.626 135.48 123.563 135.607 123.499C135.799 123.308 135.926 123.116 135.926 122.798C135.926 122.353 135.799 122.033 135.416 121.906C135.224 121.843 134.906 121.778 134.46 121.778ZM135.097 122.353C134.969 122.288 134.715 122.225 134.332 122.225H133.823V123.436H134.396C134.652 123.436 134.842 123.436 134.969 123.371C135.224 123.308 135.352 123.116 135.352 122.862C135.352 122.608 135.224 122.48 135.097 122.353Z" fill="black"/>
<path fill-rule="evenodd" clip-rule="evenodd" d="M113.686 0H24.4066C10.9607 0 0 10.6425 0 23.6416V102.98C0 116.171 10.5781 126.559 24.1519 126.559H113.495C127.068 126.559 137.647 116.171 137.647 102.98V23.6416C137.647 10.3874 127.132 0 113.686 0ZM134.906 102.98C134.906 114.706 125.475 123.818 113.431 123.818H24.1519C12.108 123.881 2.74033 114.706 2.74033 102.98V23.6416C2.74033 11.9161 12.2354 2.676 24.4066 2.676H113.749C125.666 2.676 134.969 11.853 134.969 23.6416V102.98H134.906Z" fill="#040300"/>
<path fill-rule="evenodd" clip-rule="evenodd" d="M134.906 102.98C134.906 114.706 125.475 123.818 113.431 123.818H24.1519C12.1081 123.881 2.74036 114.706 2.74036 102.98V23.6416C2.74036 11.9161 12.2355 2.67603 24.4066 2.67603H113.749C125.666 2.67603 134.969 11.853 134.969 23.6416V102.98H134.906Z" fill="#FFAB00"/>
<path fill-rule="evenodd" clip-rule="evenodd" d="M110.245 77.8086H98.8372L96.8619 65.3823L89.5341 77.6808H77.9989L85.0097 85.0732L79.2741 97.4991L91.8919 89.9797L101.77 97.6268L99.9216 85.0732L110.245 77.8086Z" fill="white"/>
<path fill-rule="evenodd" clip-rule="evenodd" d="M118.21 75.3229H100.94L98.2009 58.1177L88.1318 75.1956H86.2206C85.0732 73.2198 84.6274 70.3523 84.6274 68.5685C84.6274 65.6374 84.8182 62.7694 84.8182 59.0091C84.8182 54.0392 83.3527 51.4263 79.4646 50.4706V50.3432C87.6862 49.1958 91.4453 43.7149 91.4453 36.0677C91.4453 25.1718 84.1806 22.8136 74.6854 22.8136H49.1328L38.2982 74.0482H51.8718L55.8228 55.3775H64.8724C69.7158 55.3775 71.6912 57.7353 71.6912 62.2593C71.6912 65.7005 71.3088 68.4408 71.3088 71.0538C71.3088 72.0095 71.4995 74.303 72.2002 75.1956L82.0143 85.583L73.5392 103.745L91.6368 92.9751L105.146 103.363L102.661 86.2206L118.21 75.3229ZM68.9511 45.818H58.1178L60.7295 33.4561H70.799C74.3672 33.4561 78.1267 34.4118 78.1267 38.7451C78.1267 44.2895 73.8575 45.818 68.9511 45.818ZM91.892 89.9796L79.2741 97.499L85.0732 85.1362L78.0633 77.7442H89.5973L96.862 65.4454L98.8372 77.8715H110.308L99.9847 85.0732L101.833 97.691L91.892 89.9796Z" fill="#040300"/>
<path d="M172.765 43.9521V38.4643H186.401V54.9692H181.495L180.664 51.0613C178.668 54.11 175.467 55.6344 171.06 55.6344C166.764 55.6344 163.327 54.2209 160.75 51.3939C158.172 48.6223 156.883 44.8806 156.883 40.1689C156.883 35.4017 158.228 31.6323 160.916 28.8607C163.577 26.0891 167.235 24.7033 171.892 24.7033C175.744 24.7033 178.945 25.6595 181.495 27.5719C184.073 29.512 185.583 32.1035 186.027 35.3463H178.835C178.419 33.905 177.615 32.7825 176.423 31.9788C175.231 31.175 173.735 30.7731 171.933 30.7731C169.522 30.7731 167.623 31.6046 166.238 33.2676C164.879 34.9305 164.2 37.231 164.2 40.1689C164.2 43.1068 164.907 45.4072 166.321 47.0702C167.762 48.7331 169.744 49.5646 172.266 49.5646C174.095 49.5646 175.661 49.0519 176.964 48.0264C178.294 46.9732 179.084 45.6151 179.333 43.9521H172.765ZM210.319 54.9692H203.792C203.46 54.3318 203.28 53.528 203.252 52.5579C201.811 54.4981 199.524 55.4681 196.392 55.4681C194.036 55.4681 192.138 54.8861 190.696 53.722C189.283 52.5579 188.576 50.9504 188.576 48.8994C188.576 44.9083 191.376 42.6772 196.974 42.206L200.342 41.915C202.199 41.721 203.127 41.0142 203.127 39.7947C203.127 38.3535 202.032 37.6328 199.843 37.6328C198.512 37.6328 197.57 37.8407 197.016 38.2564C196.489 38.6445 196.17 39.3789 196.06 40.4599H189.616C190.004 35.4987 193.426 33.0181 199.884 33.0181C206.259 33.0181 209.446 35.2215 209.446 39.6284V51.0197C209.446 52.8212 209.737 54.1378 210.319 54.9692ZM198.346 51.1028C199.815 51.1028 200.979 50.7287 201.838 49.9803C202.698 49.2043 203.127 48.0541 203.127 46.5297V44.9499C202.739 45.3656 202.018 45.6428 200.965 45.7814L198.305 46.0724C196.226 46.2941 195.186 47.1533 195.186 48.65C195.186 49.3983 195.464 49.9942 196.018 50.4377C196.572 50.8811 197.348 51.1028 198.346 51.1028ZM238.199 33.0181C240.555 33.0181 242.398 33.7249 243.728 35.1384C245.059 36.5242 245.724 38.492 245.724 41.0419V54.9692H239.238V42.1644C239.238 39.7531 238.171 38.5475 236.037 38.5475C234.901 38.5475 234 38.9355 233.335 39.7115C232.669 40.4876 232.337 41.6239 232.337 43.1206V54.9692H225.851V42.1644C225.851 39.7531 224.784 38.5475 222.65 38.5475C221.514 38.5475 220.599 38.9355 219.906 39.7115C219.241 40.4876 218.908 41.6239 218.908 43.1206V54.9692H212.423V33.517H218.742V36.5519C220.322 34.196 222.359 33.0181 224.853 33.0181C228.069 33.0181 230.286 34.3069 231.505 36.8845C233.251 34.3069 235.483 33.0181 238.199 33.0181ZM270.237 44.8667V46.1555H254.356C254.577 47.6245 255.118 48.747 255.977 49.523C256.836 50.2991 257.931 50.6871 259.261 50.6871C261.368 50.6871 262.809 49.8833 263.585 48.2758H269.738C269.156 50.4931 267.923 52.2531 266.038 53.5557C264.153 54.8307 261.894 55.4681 259.261 55.4681C255.935 55.4681 253.247 54.4426 251.196 52.3916C249.145 50.3407 248.119 47.6245 248.119 44.2431C248.119 40.834 249.131 38.1179 251.154 36.0946C253.15 34.0436 255.824 33.0181 259.178 33.0181C262.504 33.0181 265.193 34.0852 267.243 36.2193C269.239 38.3812 270.237 41.2636 270.237 44.8667ZM259.095 37.7991C256.434 37.7991 254.868 39.2127 254.397 42.0397H263.876C263.654 40.7093 263.128 39.67 262.296 38.9216C261.465 38.1733 260.398 37.7991 259.095 37.7991ZM281.917 55.5928C278.535 55.5928 276.013 55.0108 274.35 53.8467C272.715 52.6549 271.8 50.7564 271.606 48.1511H277.925C278.036 49.2874 278.397 50.0912 279.006 50.5624C279.644 51.0336 280.655 51.2691 282.041 51.2691C284.453 51.2691 285.658 50.5762 285.658 49.1904C285.658 48.5253 285.395 48.0264 284.868 47.6938C284.342 47.3335 283.372 47.0424 281.958 46.8207L279.173 46.3634C274.35 45.6151 271.939 43.4255 271.939 39.7947C271.939 37.6328 272.77 35.9699 274.433 34.8058C276.096 33.614 278.48 33.0181 281.584 33.0181C287.986 33.0181 291.312 35.471 291.562 40.3767H285.534C285.506 38.3535 284.189 37.3418 281.584 37.3418C279.394 37.3418 278.3 38.0209 278.3 39.3789C278.3 39.9887 278.549 40.4599 279.048 40.7925C279.547 41.1251 280.337 41.3745 281.418 41.5408L284.619 41.9981C287.196 42.3861 289.095 43.1206 290.315 44.2015C291.534 45.2825 292.144 46.7653 292.144 48.65C292.144 50.8673 291.243 52.5857 289.441 53.8052C287.668 54.997 285.159 55.5928 281.917 55.5928ZM165.157 75.3685V98.6915H178.71V104.969H158.131V75.3685H165.157ZM201.794 104.969H195.266C194.934 104.332 194.754 103.528 194.726 102.558C193.285 104.498 190.998 105.468 187.866 105.468C185.51 105.468 183.612 104.886 182.171 103.722C180.757 102.558 180.05 100.95 180.05 98.8994C180.05 94.9083 182.85 92.6772 188.448 92.206L191.816 91.915C193.673 91.721 194.601 91.0142 194.601 89.7947C194.601 88.3535 193.506 87.6328 191.317 87.6328C189.986 87.6328 189.044 87.8407 188.49 88.2564C187.963 88.6445 187.644 89.3789 187.534 90.4599H181.09C181.478 85.4987 184.901 83.0181 191.358 83.0181C197.733 83.0181 200.92 85.2215 200.92 89.6284V101.02C200.92 102.821 201.211 104.138 201.794 104.969ZM189.82 101.103C191.289 101.103 192.453 100.729 193.312 99.9803C194.172 99.2043 194.601 98.0541 194.601 96.5297V94.9499C194.213 95.3656 193.493 95.6428 192.439 95.7814L189.779 96.0724C187.7 96.2941 186.661 97.1533 186.661 98.65C186.661 99.3983 186.938 99.9942 187.492 100.438C188.046 100.881 188.822 101.103 189.82 101.103ZM217.745 95.4903V83.517H224.231V104.969H217.911V101.934C216.248 104.29 214.003 105.468 211.176 105.468C208.904 105.468 207.088 104.789 205.73 103.431C204.4 102.045 203.734 100.091 203.734 97.569V83.517H210.22V96.2802C210.22 98.7193 211.37 99.9388 213.671 99.9388C214.835 99.9388 215.805 99.5507 216.581 98.7747C217.357 97.9986 217.745 96.9039 217.745 95.4903ZM240.569 83.0181C242.842 83.0181 244.644 83.711 245.974 85.0968C247.332 86.4549 248.011 88.395 248.011 90.9172V104.969H241.526V92.206C241.526 89.767 240.375 88.5475 238.075 88.5475C236.911 88.5475 235.941 88.9355 235.165 89.7115C234.389 90.4876 234.001 91.5824 234.001 92.9959V104.969H227.515V83.517H233.834V86.5519C235.497 84.196 237.742 83.0181 240.569 83.0181ZM261.44 105.468C258.086 105.468 255.412 104.443 253.416 102.392C251.421 100.341 250.423 97.6245 250.423 94.2431C250.423 90.8063 251.421 88.0763 253.416 86.053C255.412 84.0297 258.086 83.0181 261.44 83.0181C264.378 83.0181 266.775 83.7942 268.632 85.3463C270.517 86.8706 271.612 88.9493 271.917 91.5824H265.473C265.112 89.3928 263.768 88.298 261.44 88.298C258.474 88.298 256.992 90.2797 256.992 94.2431C256.992 98.1788 258.474 100.147 261.44 100.147C263.934 100.147 265.32 98.941 265.597 96.5297H272.041C271.847 99.2459 270.78 101.422 268.84 103.057C266.9 104.664 264.433 105.468 261.44 105.468ZM287.075 83.0181C289.348 83.0181 291.15 83.711 292.48 85.0968C293.838 86.4549 294.517 88.395 294.517 90.9172V104.969H288.032V92.206C288.032 89.767 286.881 88.5475 284.581 88.5475C283.417 88.5475 282.447 88.9355 281.671 89.7115C280.895 90.4876 280.507 91.5824 280.507 92.9959V104.969H274.021V75.3685H280.507V86.344C282.142 84.1268 284.331 83.0181 287.075 83.0181ZM319.046 94.8667V96.1555H303.165C303.387 97.6245 303.927 98.747 304.786 99.523C305.645 100.299 306.74 100.687 308.071 100.687C310.177 100.687 311.618 99.8833 312.394 98.2758H318.547C317.965 100.493 316.732 102.253 314.847 103.556C312.962 104.831 310.704 105.468 308.071 105.468C304.745 105.468 302.056 104.443 300.005 102.392C297.954 100.341 296.929 97.6245 296.929 94.2431C296.929 90.834 297.94 88.1179 299.964 86.0946C301.959 84.0436 304.634 83.0181 307.987 83.0181C311.313 83.0181 314.002 84.0852 316.053 86.2193C318.048 88.3812 319.046 91.2636 319.046 94.8667ZM307.904 87.7991C305.244 87.7991 303.678 89.2127 303.206 92.0397H312.685C312.464 90.7093 311.937 89.67 311.105 88.9216C310.274 88.1733 309.207 87.7991 307.904 87.7991ZM334.054 83.1844C334.165 83.1844 334.636 83.2121 335.467 83.2676V89.1711H333.804C330.007 89.1711 328.109 91.1112 328.109 94.9915V104.969H321.623V83.517H327.942V87.5081C328.94 84.6256 330.977 83.1844 334.054 83.1844Z" fill="#020202"/>
</svg>
